<?xml version="1.0" encoding="utf-8"?>
<!-- Generator: Adobe Illustrator 27.0.0, SVG Export Plug-In . SVG Version: 6.00 Build 0)  -->
<svg version="1.1" id="レイヤー_1" xmlns="http://www.w3.org/2000/svg" xmlns:xlink="http://www.w3.org/1999/xlink" x="0px"
	 y="0px" viewBox="0 0 256 256" style="enable-background:new 0 0 256 256;" xml:space="preserve">
<style type="text/css">
	.st0{fill:#FFC48F;}
	.st1{fill:none;stroke:#000000;stroke-miterlimit:10;}
</style>
<path class="st0" d="M221.1,253H51.9c-14.4,0-26-11.5-26-26V48.2c0-14.4,11.5-26,26-26h169.2c14.4,0,26,11.5,26,26V227
	C247,241.5,235.5,253,221.1,253z"/>
<path class="st1" d="M201.9,233.8H32.6c-14.4,0-26-11.5-26-26V29c0-14.4,11.5-26,26-26h169.2c14.4,0,26,11.5,26,26v178.8
	C227.8,222.2,216.3,233.8,201.9,233.8z"/>
<path d="M27.8,54.9c0-5.8,5.8-11.5,12.5-11.5c92.3,0,167.3,64.4,167.3,144.2c0,5.8-5.8,11.5-12.5,11.5c-6.7,0-12.5-4.8-12.5-11.5
	c0-67.3-63.5-122.1-141.3-122.1C33.6,65.5,27.8,60.7,27.8,54.9z M27.8,176.1c0-12.5,11.5-22.1,26-22.1s26,9.6,26,22.1
	c0,12.5-11.5,22.1-26,22.1S27.8,188.6,27.8,176.1z M40.3,87.6c64.4,0,116.3,44.2,116.3,100c0,5.8-5.8,11.5-12.5,11.5
	c-6.7,0-12.5-4.8-12.5-11.5c0-43.3-40.4-77.9-90.4-77.9c-6.7,0-12.5-4.8-12.5-11.5S33.6,87.6,40.3,87.6z"/>
</svg>
