<?xml version="1.0" encoding="utf-8"?>
<!-- Generator: Adobe Illustrator 27.0.0, SVG Export Plug-In . SVG Version: 6.00 Build 0)  -->
<svg version="1.1" xmlns="http://www.w3.org/2000/svg" xmlns:xlink="http://www.w3.org/1999/xlink" x="0px" y="0px"
	 viewBox="0 0 25 26" style="enable-background:new 0 0 25 26;" xml:space="preserve">
<style type="text/css">
	.st0{fill:url(#SVGID_1_);}
	.st1{fill:#FFFFFF;}
</style>
<g id="レイヤー_1">
	<linearGradient id="SVGID_1_" gradientUnits="userSpaceOnUse" x1="2.635" y1="6.3814" x2="22.1411" y2="20.364">
		<stop  offset="0" style="stop-color:#0071BF"/>
		<stop  offset="0.3015" style="stop-color:#0053A7"/>
		<stop  offset="0.9567" style="stop-color:#00056A"/>
		<stop  offset="1" style="stop-color:#000066"/>
	</linearGradient>
	<path class="st0" d="M24.5,10.8c0-2.8-2-5.1-4.6-5.6C18.4,2.7,15.7,1,12.6,1c-2.3,0-4.5,0.9-6,2.5c-0.1,0-0.2,0-0.3,0
		C3.2,3.5,0.7,6,0.7,9.2c0,0.9,0.2,1.8,0.6,2.6c-0.4,1-0.7,2.2-0.7,3.3c0,4.6,3.7,8.3,8.3,8.3c0.1,0,0.2,0,0.3,0
		c1.2,1,2.8,1.6,4.5,1.6c2.4,0,3.9-0.4,5.2-2.3l5.7,2.3l-2.4-5.7c1.5-1.3,1.7-2.5,1.7-4.6c0-0.4,0-0.8-0.1-1.1
		C24.2,12.8,24.5,11.8,24.5,10.8z"/>
	<path class="st1" d="M4.9,7.2c0-0.5,0.4-0.9,1-0.9c7.1,0,12.9,5.2,12.9,11.5c0,0.5-0.4,0.9-1,0.9c-0.5,0-1-0.4-1-0.9
		c0-5.4-4.9-9.8-10.9-9.8C5.4,8.1,4.9,7.7,4.9,7.2z M4.9,16.9c0-1,0.9-1.8,2-1.8s2,0.8,2,1.8s-0.9,1.8-2,1.8S4.9,17.9,4.9,16.9z
		 M5.9,9.8c5,0,9,3.5,9,8c0,0.5-0.4,0.9-1,0.9c-0.5,0-1-0.4-1-0.9c0-3.5-3.1-6.2-7-6.2c-0.5,0-1-0.4-1-0.9C4.9,10.2,5.4,9.8,5.9,9.8
		z"/>
</g>
<g id="レイヤー_2">
</g>
<g id="レイヤー_3">
</g>
</svg>
