<?xml version="1.0" encoding="utf-8"?>
<!-- Generator: Adobe Illustrator 27.0.0, SVG Export Plug-In . SVG Version: 6.00 Build 0)  -->
<svg version="1.1" id="レイヤー_1" xmlns="http://www.w3.org/2000/svg" xmlns:xlink="http://www.w3.org/1999/xlink" x="0px"
	 y="0px" viewBox="0 0 25 26" style="enable-background:new 0 0 25 26;" xml:space="preserve">
<style type="text/css">
	.st0{fill:#FFC48F;}
	.st1{fill:none;stroke:#000000;stroke-miterlimit:10;}
</style>
<path class="st0" d="M22.3,26H4.7C3.2,26,2,24.8,2,23.3V4.7C2,3.2,3.2,2,4.7,2h17.6C23.8,2,25,3.2,25,4.7v18.6
	C25,24.8,23.8,26,22.3,26z"/>
<path class="st1" d="M20.3,24H2.7C1.2,24,0,22.8,0,21.3V2.7C0,1.2,1.2,0,2.7,0h17.6C21.8,0,23,1.2,23,2.7v18.6
	C23,22.8,21.8,24,20.3,24z"/>
<path d="M2.2,5.4c0-0.6,0.6-1.2,1.3-1.2c9.6,0,17.4,6.7,17.4,15c0,0.6-0.6,1.2-1.3,1.2c-0.7,0-1.3-0.5-1.3-1.2
	c0-7-6.6-12.7-14.7-12.7C2.8,6.5,2.2,6,2.2,5.4z M2.2,18c0-1.3,1.2-2.3,2.7-2.3s2.7,1,2.7,2.3c0,1.3-1.2,2.3-2.7,2.3
	S2.2,19.3,2.2,18z M3.5,8.8c6.7,0,12.1,4.6,12.1,10.4c0,0.6-0.6,1.2-1.3,1.2c-0.7,0-1.3-0.5-1.3-1.2c0-4.5-4.2-8.1-9.4-8.1
	c-0.7,0-1.3-0.5-1.3-1.2S2.8,8.8,3.5,8.8z"/>
</svg>
